<svg id="main_logo" data-name="main_logo" xmlns="http://www.w3.org/2000/svg" viewBox="0 0 303.54 69.34" style="fill: #1a75bc;"><path class="cls-1" d="M64.91,32.43l-5.35,5.35.66.66a4.29,4.29,0,0,1,0,6.07l-1,1a4.22,4.22,0,0,1-3,1.25l-.29,0A4.29,4.29,0,0,1,54.7,50l-1,1a4.25,4.25,0,0,1-3,1.26,2.58,2.58,0,0,1-.29,0,4.24,4.24,0,0,1-1.23,3.33l-1,1a4.27,4.27,0,0,1-3,1.26,5.08,5.08,0,0,1-.67-.07v0a4.43,4.43,0,0,1-1.28,3l-1,1a4.4,4.4,0,0,1-3,1.28h-.09a4.09,4.09,0,0,1-2.91-1.19l-.38-.38-2.22,2.21a4.9,4.9,0,0,1-6.92,0l-.4-.41a4.85,4.85,0,0,1-1.38-4,5.29,5.29,0,0,1-.56,0,4.83,4.83,0,0,1-3.46-1.43h0l-.4-.41a4.83,4.83,0,0,1-1.37-4c-.2,0-.38.06-.57.06a4.93,4.93,0,0,1-3.46-1.43l-.4-.41a4.86,4.86,0,0,1-1.38-4,5.25,5.25,0,0,1-.57,0,4.88,4.88,0,0,1-3.46-1.43l-.39-.39a4.88,4.88,0,0,1,0-6.92l.44-.46-6-6L34.1,1.63ZM58,36.26l3.82-3.83L39.14,9.71l-14,14.07a3.74,3.74,0,0,0,6,4.26l9.3-9.44L54.26,32.46h0ZM58.7,43a2.14,2.14,0,0,0,0-3L52,33.28h0L40.42,21.66,32.6,29.57a5.88,5.88,0,0,1-10-4.23,6,6,0,0,1,.64-2.68l.21-.27L37.61,8.18,34.1,4.67,6.33,32.43,10.85,37l.59-.59a4.88,4.88,0,0,1,6.92,0l.41.4a4.87,4.87,0,0,1,1.38,4,3.55,3.55,0,0,1,.57-.06,4.88,4.88,0,0,1,3.46,1.43l.4.41a4.86,4.86,0,0,1,1.37,4A4.91,4.91,0,0,1,30,48l.4.41a4.82,4.82,0,0,1,1.38,4,4.84,4.84,0,0,1,4,1.39l.41.39a4.91,4.91,0,0,1,1,5.54l.6.6a1.9,1.9,0,0,0,1.43.56,2.16,2.16,0,0,0,1.5-.66l1-1a2.2,2.2,0,0,0,.66-1.51,1.94,1.94,0,0,0-.56-1.43l-3.85-3.84L35,49.53,36.49,48l3.6,3.6.06-.06L43.63,55a2.14,2.14,0,0,0,3,0l1-1a2.19,2.19,0,0,0,0-3.05l-5.73-5.72-1-1,1.53-1.52,6.69,6.7a2.19,2.19,0,0,0,3,0l1-1a2.14,2.14,0,0,0,0-3l-6.76-6.76-.23-.23L47.69,37l7,7a2.15,2.15,0,0,0,3,0Zm-24,16.6a2.76,2.76,0,0,0,0-3.89l-.4-.4a2.75,2.75,0,0,0-3.88,0h0l-2.56,2.57h0a2.76,2.76,0,0,0,0,3.88l.4.41a2.78,2.78,0,0,0,3.89,0Zm-5.81-5.81a2.73,2.73,0,0,0,0-3.88l-.39-.4a2.74,2.74,0,0,0-3.88,0h0L22,52.07h0A2.75,2.75,0,0,0,22,56l.41.39a2.75,2.75,0,0,0,3.88,0v0l2.56-2.55ZM23.06,48a2.76,2.76,0,0,0,0-3.88l-.41-.39a2.69,2.69,0,0,0-1.93-.81,2.73,2.73,0,0,0-1.95.8h0L16.2,46.25h0a2.76,2.76,0,0,0,0,3.88l.41.4a2.73,2.73,0,0,0,3.88,0Zm-5.8-5.8a2.76,2.76,0,0,0,0-3.88l-.41-.41a2.76,2.76,0,0,0-2-.79,2.73,2.73,0,0,0-1.93.79L10.4,40.45a2.75,2.75,0,0,0,0,3.88l.4.41a2.76,2.76,0,0,0,3.88,0h0l2.56-2.57Z"/><path class="cls-1" d="M81.82,27.2c0-15.54,23.06-15.54,23.06,0S81.82,42.77,81.82,27.2ZM99,27.2a5.65,5.65,0,1,0-11.27,0C87.73,35.35,99,35.35,99,27.2Z"/><path class="cls-1" d="M119.39,15.67c4.65,0,9.69,2.54,10.56,8.54H124.3a4.7,4.7,0,0,0-4.91-3.3c-3.37,0-5.59,2.53-5.59,6.26,0,3.3,2.19,6.19,5.59,6.23a4.78,4.78,0,0,0,5-3.63h5.65c-.84,6.36-5.88,8.86-10.66,8.86-5.72,0-11.5-3.82-11.53-11.46S113.67,15.67,119.39,15.67Z"/><path class="cls-1" d="M149.28,26.72a4.87,4.87,0,0,1,2.7,4.59c0,3.92-2.41,7.09-7,7.09H134.45V15.93h9.6a6.89,6.89,0,0,1,7,6.9A5.38,5.38,0,0,1,149.28,26.72ZM140,21.07V24.7h3.63c2.28,0,2.28-3.63,0-3.63Zm0,8.41V33.3h4.59c2.31,0,2.28-3.82,0-3.82Z"/><path class="cls-1" d="M155.09,27.2c0-15.54,23-15.54,23,0S155.09,42.77,155.09,27.2Zm17.18,0a5.65,5.65,0,1,0-11.27,0C161,35.35,172.27,35.35,172.27,27.2Z"/><path class="cls-1" d="M192.37,23.8c10.75,0,10.75,14.57,0,14.6h-9.89V15.93h16.15v5.14H188.22V23.8Zm-4.15,5.07v4.4h4.11a2.21,2.21,0,1,0,0-4.4Z"/><path class="cls-1" d="M203.38,27.2c0-15.54,23.05-15.54,23.05,0S203.38,42.77,203.38,27.2Zm17.17,0a5.65,5.65,0,1,0-11.26,0C209.29,35.35,220.55,35.35,220.55,27.2Z"/><path class="cls-1" d="M232.72,40.94H228V33.43h2.28L238,15.64h2.47l8,17.79h2.34v7.51H246V38.47h-13.3Zm3.34-7.58h6.36l-3.24-8.12Z"/><path class="cls-1" d="M255.71,38.44h-2.05V15.93h5.87v11L270.9,15.83H273V38.4H267v-11Z"/><path class="cls-1" d="M298.57,15.87h2.06V38.4h-5.88v-10l-4.78,5h-.64l-4.75-5v10H278.7V15.87h2.12l8.8,9.76Z"/><path class="cls-1" d="M83.44,50.94h1a4.82,4.82,0,0,1,1.7-2.37,4,4,0,0,1,2.17-.65A4,4,0,0,1,91,54.66a3.71,3.71,0,0,1-2.74,1.14,4,4,0,0,1-2.59-.94,3.44,3.44,0,0,1-1.29-2.53h-1v3.28H82v-7.5h1.42Zm7.3.93a2.6,2.6,0,0,0-.7-1.79,2.3,2.3,0,0,0-1.77-.76,2.42,2.42,0,0,0-1.74.7,2.52,2.52,0,0,0-.72,1.86,2.4,2.4,0,0,0,.74,1.84,2.46,2.46,0,0,0,1.74.7A2.31,2.31,0,0,0,90,53.68,2.51,2.51,0,0,0,90.74,51.87Z"/><path class="cls-1" d="M95.6,48.11h1.52a5,5,0,0,1,1.77.22,1.82,1.82,0,0,1,.86.74,2.25,2.25,0,0,1,.31,1.21,2,2,0,0,1-.41,1.31,2.11,2.11,0,0,1-1.11.73,7.11,7.11,0,0,1-1.51.11v3.18H95.6ZM97,51h.46a2.46,2.46,0,0,0,.74-.08.64.64,0,0,0,.33-.25.75.75,0,0,0,.12-.43.67.67,0,0,0-.34-.63,1.88,1.88,0,0,0-.91-.15H97Z"/><path class="cls-1" d="M109,48.11v7.5h-1.43v-4.7l-2.8,4.7h-1.24v-7.5H105V53l2.84-4.85Z"/><path class="cls-1" d="M115.26,48.11h1.44l2.42,6.16H120v2.47h-1.39V55.61h-5.16v1.13H112V54.27h.83Zm.73,2-1.64,4.17h3.28Z"/><path class="cls-1" d="M128.43,48.11v7.5H127v-4.7l-2.8,4.7H123v-7.5h1.43V53l2.84-4.85Z"/><path class="cls-1" d="M135.53,52.32h-.48a7.23,7.23,0,0,1-1.53-.11,2.33,2.33,0,0,1-.94-.45,2,2,0,0,1-.64-.85,4,4,0,0,1-.18-1.32V48.11h1.45v1.46a1.62,1.62,0,0,0,.27,1.07,1.66,1.66,0,0,0,1.18.3h.87V48.11H137v7.5h-1.43Z"/><path class="cls-1" d="M140.78,48.11h4.09V49.5h-2.68v1.36h2.68v1.37h-2.68v2h2.68v1.4h-4.09Z"/><path class="cls-1" d="M155.19,49.42l-1,1a3.1,3.1,0,0,0-2.3-1.08,2.42,2.42,0,0,0-1.81.74,2.46,2.46,0,0,0-.74,1.81,2.65,2.65,0,0,0,.33,1.33,2.33,2.33,0,0,0,.92.92,2.7,2.7,0,0,0,1.33.33,2.78,2.78,0,0,0,1.13-.23,4.23,4.23,0,0,0,1.14-.85l1,1a5.36,5.36,0,0,1-1.57,1.13,4.25,4.25,0,0,1-1.69.31A3.88,3.88,0,0,1,149,54.69a3.82,3.82,0,0,1-1.12-2.84,3.89,3.89,0,0,1,.51-2,3.76,3.76,0,0,1,1.45-1.4,4.09,4.09,0,0,1,2-.53,4.32,4.32,0,0,1,3.27,1.5Z"/><path class="cls-1" d="M158.54,48.11H160v2.58l2-2.58h1.71l-2.62,3.35L164,55.61h-1.7L160,52.28v3.33h-1.45Z"/><path class="cls-1" d="M169.4,48.11h1.45l2.88,7.5h-1.48l-.59-1.54H168.6L168,55.61H166.5Zm.73,2-1,2.57h2Z"/><path class="cls-1" d="M181.35,48.11v7.5h-1.43v-3h-.36l-1.51,3h-1.56l1.7-3.25a1.87,1.87,0,0,1-1.48-2,2.75,2.75,0,0,1,.16-1A1.83,1.83,0,0,1,178,48.32a3,3,0,0,1,.6-.16l1.25,0Zm-1.43,3.09V49.5h-.39a3.26,3.26,0,0,0-.77.07.62.62,0,0,0-.38.27.9.9,0,0,0-.15.53.7.7,0,0,0,.29.64,1.8,1.8,0,0,0,.95.19Z"/><path class="cls-1" d="M190.18,48.11h1.44v2.58l2-2.58h1.71l-2.62,3.35,2.88,4.15h-1.7l-2.31-3.33v3.33h-1.44Z"/><path class="cls-1" d="M202.28,47.92A3.72,3.72,0,0,1,205,49.07a3.86,3.86,0,0,1,1.15,2.81A3.8,3.8,0,0,1,205,54.66a3.92,3.92,0,0,1-5.56,0,4,4,0,0,1-.59-4.75,3.71,3.71,0,0,1,1.43-1.43A3.77,3.77,0,0,1,202.28,47.92Zm0,1.4a2.38,2.38,0,0,0-1.76.72,2.53,2.53,0,0,0-.71,1.84,2.39,2.39,0,0,0,.9,2,2.42,2.42,0,0,0,1.59.57,2.31,2.31,0,0,0,1.73-.74,2.64,2.64,0,0,0,0-3.62A2.34,2.34,0,0,0,202.27,49.32Z"/><path class="cls-1" d="M210.33,48.11h1.4l1.74,5.23,1.75-5.23h1.39l1.26,7.5h-1.38l-.8-4.74-1.6,4.74h-1.26l-1.58-4.74-.82,4.74H209Z"/><path class="cls-1" d="M221.09,48.11h5.4v7.5h-1.44V49.44h-2.51v6.17h-1.45Z"/><path class="cls-1" d="M232.59,48.11H234l2.89,7.5h-1.49l-.59-1.54h-3.06l-.61,1.54h-1.49Zm.73,2-1,2.57h2Z"/><path class="cls-1" d="M240.12,48.11h1.45v2.83h2.5V48.11h1.44v7.5h-1.44V52.32h-2.5v3.29h-1.45Z"/><path class="cls-1" d="M254.78,48.11v7.5h-1.42v-4.7l-2.8,4.7h-1.25v-7.5h1.43V53l2.84-4.85Z"/><path class="cls-1" d="M263,48.11v7.5h-1.43v-3h-.36l-1.51,3h-1.56l1.7-3.25a1.86,1.86,0,0,1-1.47-2,2.76,2.76,0,0,1,.15-1,1.82,1.82,0,0,1,.44-.69,1.89,1.89,0,0,1,.67-.42,3.27,3.27,0,0,1,.61-.16l1.24,0Zm-1.43,3.09V49.5h-.39a3.33,3.33,0,0,0-.77.07.64.64,0,0,0-.38.27.9.9,0,0,0-.15.53.68.68,0,0,0,.3.64,1.74,1.74,0,0,0,.94.19Z"/></svg>